<?xml version="1.0" standalone="no"?>
<!DOCTYPE svg PUBLIC "-//W3C//DTD SVG 20010904//EN"
 "http://www.w3.org/TR/2001/REC-SVG-20010904/DTD/svg10.dtd">
<svg version="1.0" xmlns="http://www.w3.org/2000/svg"
 width="16.000000pt" height="16.000000pt" viewBox="0 0 16.000000 16.000000"
 preserveAspectRatio="xMidYMid meet">
<metadata>
Created by potrace 1.11, written by Peter Selinger 2001-2013
</metadata>
<g transform="translate(0.000000,16.000000) scale(0.006154,-0.006154)"
fill="#000000" stroke="none">
<path d="M1227 2594 c-1 -1 -35 -5 -76 -8 -40 -4 -77 -9 -81 -11 -4 -3 -25 -7
-46 -11 -68 -10 -216 -63 -309 -110 -190 -96 -374 -259 -493 -436 -76 -111
-171 -339 -188 -448 -3 -19 -8 -38 -10 -41 -14 -24 -21 -247 -11 -365 13 -142
83 -369 146 -475 11 -19 25 -43 30 -54 18 -40 131 -185 196 -249 100 -100 234
-195 366 -258 51 -25 191 -75 229 -83 8 -2 36 -8 61 -14 102 -23 295 -31 415
-17 503 61 941 429 1082 911 42 140 56 236 55 380 0 472 -267 915 -686 1138
-68 37 -233 102 -278 111 -13 2 -44 9 -69 15 -70 16 -322 35 -333 25z"/>
</g>
</svg>
